<?xml version="1.0" encoding="UTF-8" standalone="no"?>
<svg
   xmlns:dc="http://purl.org/dc/elements/1.1/"
   xmlns:cc="http://creativecommons.org/ns#"
   xmlns:rdf="http://www.w3.org/1999/02/22-rdf-syntax-ns#"
   xmlns:svg="http://www.w3.org/2000/svg"
   xmlns="http://www.w3.org/2000/svg"
   viewBox="0 0 773 192"
   height="192"
   width="773"
   xml:space="preserve"
   version="1.1"
   id="svg2"><metadata
     id="metadata8"><rdf:RDF><cc:Work
         rdf:about=""><dc:format>image/svg+xml</dc:format><dc:type
           rdf:resource="http://purl.org/dc/dcmitype/StillImage" /></cc:Work></rdf:RDF></metadata><defs
     id="defs6"><clipPath
       id="clipPath18"
       clipPathUnits="userSpaceOnUse"><path
         id="path20"
         d="M 0,1440 0,0 l 5797.5,0 0,1440 L 0,1440 Z" /></clipPath></defs><g
     transform="matrix(1.3333333,0,0,-1.3333333,0,192)"
     id="g10"><g
       transform="scale(0.1)"
       id="g12"><g
         id="g14"><g
           clip-path="url(#clipPath18)"
           id="g16"><path
             id="path22"
             style="fill:#231f20;fill-opacity:1;fill-rule:nonzero;stroke:none"
             d="m 0,1227.03 222.148,0 0,-809.089 411.27,0 0,-204.972 -633.418,0 0,1014.061" /><path
             id="path24"
             style="fill:#231f20;fill-opacity:1;fill-rule:nonzero;stroke:none"
             d="m 838.297,1242.05 c 68.367,0 123.859,-55.49 123.859,-123.79 0,-68.43 -55.492,-123.768 -123.859,-123.768 -68.293,0 -123.785,55.338 -123.785,123.768 0,68.3 55.492,123.79 123.785,123.79 m -106.758,-341.597 213.516,0 0,-687.215 -213.516,0 0,687.215" /><path
             id="path26"
             style="fill:#231f20;fill-opacity:1;fill-rule:nonzero;stroke:none"
             d="m 1837.55,1227.1 213.44,0 0,-606.077 241.78,279.739 261.67,0 -280.02,-318.184 274.17,-369.609 -268.3,0 -226.53,339.707 -2.77,0 0,-339.707 -213.44,0 0,1014.131" /><path
             id="path28"
             style="fill:#231f20;fill-opacity:1;fill-rule:nonzero;stroke:none"
             d="m 1063.14,900.355 204.95,0 0,-93.937 2.86,0 c 28.44,54.09 98.2,111 202.09,111 216.38,0 256.22,-142.32 256.22,-327.313 l 0,-376.867 -213.51,0 0,334.133 c 0,79.738 -1.47,182.176 -111.08,182.176 -110.99,0 -128.02,-86.844 -128.02,-176.473 l 0,-339.836 -213.51,0 0,687.117" /><path
             id="path30"
             style="fill:#231f20;fill-opacity:1;fill-rule:nonzero;stroke:none"
             d="m 3184.57,332.219 c -68.33,-86.84 -180.71,-136.707 -291.79,-136.707 -213.46,0 -384.27,142.41 -384.27,363.011 0,220.582 170.81,362.899 384.27,362.899 199.42,0 324.55,-142.317 324.55,-362.899 l 0,-66.902 -495.31,0 c 16.95,-81.141 78.25,-133.801 160.82,-133.801 69.77,0 116.7,35.602 152.3,83.996 l 149.43,-109.597 z m -180.71,304.519 c 1.39,71.172 -54.11,130.961 -131.04,130.961 -93.89,0 -145.17,-64.047 -150.8,-130.961 l 281.84,0" /><path
             id="path32"
             style="fill:#231f20;fill-opacity:1;fill-rule:nonzero;stroke:none"
             d="m 4029.36,213.352 -196.47,0 0,91.117 -2.77,0 c -32.84,-49.797 -115.33,-108.188 -212.14,-108.188 -205.02,0 -340.22,147.969 -340.22,357.227 0,192.168 119.55,368.656 315.96,368.656 88.33,0 170.86,-24.176 219.27,-91.078 l 2.77,0 0,396.014 213.6,0 0,-1013.748 z m -367.37,520.921 c -106.67,0 -170.7,-71.214 -170.7,-175.035 0,-103.996 64.03,-175.066 170.7,-175.066 106.83,0 170.9,71.07 170.9,175.066 0,103.821 -64.07,175.035 -170.9,175.035" /><path
             id="path34"
             style="fill:#18679e;fill-opacity:1;fill-rule:nonzero;stroke:none"
             d="m 5576.32,1440 -1227.16,0 c -58.64,0 -106.29,-46.48 -106.29,-103.77 l 0,-1232.332 C 4242.87,46.5508 4290.52,0 4349.16,0 l 1227.16,0 c 58.74,0 106.59,46.5508 106.59,103.898 l 0,1232.332 c 0,57.29 -47.85,103.77 -106.59,103.77" /><path
             id="path36"
             style="fill:#ffffff;fill-opacity:1;fill-rule:nonzero;stroke:none"
             d="m 4563.22,1241.75 c 68.28,0 123.77,-55.5 123.77,-123.8 0,-68.37 -55.49,-123.864 -123.77,-123.864 -68.45,0 -123.86,55.494 -123.86,123.864 0,68.3 55.41,123.8 123.86,123.8 m -106.84,-341.605 213.59,0 0,-687.215 -213.59,0 0,687.215" /><path
             id="path38"
             style="fill:#ffffff;fill-opacity:1;fill-rule:nonzero;stroke:none"
             d="m 4803.94,900.145 204.85,0 0,-93.899 2.86,0 c 28.52,54.027 98.18,110.984 202.09,110.984 216.28,0 256.21,-142.343 256.21,-327.359 l 0,-376.941 -213.44,0 0,334.199 c 0,79.687 -1.46,182.203 -110.98,182.203 -111.14,0 -128.2,-86.812 -128.2,-176.441 l 0,-339.961 -213.39,0 0,687.215" /><path
             id="path40"
             style="fill:#231f20;fill-opacity:1;fill-rule:nonzero;stroke:none"
             d="m 5718.03,249.078 11.6,0 0,-36.148 6.31,0 0,36.148 11.58,0 0,6.313 -29.49,0 0,-6.313" /><path
             id="path42"
             style="fill:#231f20;fill-opacity:1;fill-rule:nonzero;stroke:none"
             d="m 5788.53,255.391 -12.4,-31.161 -12.37,31.161 -8.97,0 0,-42.461 6.26,0 0,32.308 13,-32.308 4.18,0 12.99,32.308 0,-32.308 6.28,0 0,42.461 -8.97,0" /></g></g></g></g></svg>